<svg xmlns="http://www.w3.org/2000/svg" version="1.1" xmlns:xlink="http://www.w3.org/1999/xlink" xmlns:svgjs="http://svgjs.dev/svgjs" width="1500" height="632" viewBox="0 0 1500 632"><g transform="matrix(1,0,0,1,-0.9090909090909918,-0.8686977370945783)"><svg viewBox="0 0 396 167" data-background-color="#ffffff" preserveAspectRatio="xMidYMid meet" height="632" width="1500" xmlns="http://www.w3.org/2000/svg" xmlns:xlink="http://www.w3.org/1999/xlink"><g id="tight-bounds" transform="matrix(1,0,0,1,0.2400000000000091,0.2295451298968203)"><svg viewBox="0 0 395.52 166.54090974020636" height="166.54090974020636" width="395.52"><g><svg viewBox="0 0 684.8432891763908 288.3657575063495" height="166.54090974020636" width="395.52"><g><svg viewBox="0 0 395.52 288.3657575063495" height="288.3657575063495" width="395.52"><g id="textblocktransform"><svg viewBox="0 0 395.52 288.3657575063495" height="288.3657575063495" width="395.52" id="textblock"><g><svg viewBox="0 0 395.52 190.15880130293158" height="190.15880130293158" width="395.52"><g transform="matrix(1,0,0,1,0,0)"><svg width="395.52" viewBox="0.98 -35.16 74.94 36.03999999999999" height="190.15880130293158" data-palette-color="#ffffff"><path d="M17.04-23.54L17.04-23.54 16.55-21.58Q11.82-23.54 9.18-23.54L9.18-23.54Q6.84-23.54 5.88-22.83 4.93-22.12 4.93-19.82L4.93-19.82Q4.93-17.97 6.27-16.75 7.62-15.53 9.52-14.82 11.43-14.11 13.35-13.31 15.28-12.5 16.63-10.94 17.97-9.38 17.97-7.08L17.97-7.08Q17.97-3.96 15.67-1.61 13.38 0.73 9.72 0.78L9.72 0.78Q7.03 0.78 4.69-0.34 2.34-1.46 0.98-3.17L0.98-3.17 2.39-4.64Q2.98-4.39 4.13-3.86 5.27-3.32 5.76-3.15 6.25-2.98 7.2-2.78 8.15-2.59 9.23-2.59L9.23-2.59Q11.52-2.59 12.99-3.61 14.45-4.64 14.45-6.49L14.45-6.49Q14.45-7.71 13.77-8.57 13.09-9.42 11.96-9.96 10.84-10.5 9.5-10.99 8.15-11.47 6.81-12.08 5.47-12.7 4.35-13.55 3.22-14.4 2.54-15.87 1.86-17.33 1.86-19.34L1.86-19.34Q1.86-22.27 3.44-24.24 5.03-26.22 7.91-26.22L7.91-26.22Q9.03-26.22 10.45-25.88 11.87-25.54 12.7-25.24 13.53-24.95 15.16-24.29 16.8-23.63 17.04-23.54ZM22.7-21.09L22.7-21.09 21.73-23.58Q23-24.85 24.95-25.61 26.9-26.37 28.81-26.37L28.81-26.37Q37.06-26.37 37.06-12.11L37.06-12.11Q37.06-10.16 36.84-6.35 36.62-2.54 36.62-0.63L36.62-0.63Q36.23 0.88 35.1 0.88L35.1 0.88Q34.23 0.88 33.49 0 32.76-0.88 32.76-1.95L32.76-1.95Q32.76-2.29 32.81-2.44L32.81-2.44Q29.78 0.49 26.36 0.49L26.36 0.49Q23.78 0.49 21.85-1.39 19.92-3.27 19.92-5.96L19.92-5.96Q19.92-10.5 23.46-14.16 27-17.82 31.49-17.82L31.49-17.82Q31.69-17.82 31.88-17.8 32.08-17.77 32.35-17.72 32.61-17.68 32.76-17.68L32.76-17.68Q32.37-23.39 28.22-23.39L28.22-23.39Q25.78-23.39 22.7-21.09ZM32.91-5.81L32.91-5.81Q33.01-9.23 33.01-10.99L33.01-10.99Q33.01-12.45 32.91-15.09L32.91-15.09 32.52-15.09Q29.05-15.04 26.19-12.5 23.34-9.96 23.34-6.35L23.34-6.35Q23.34-4.79 24.29-3.86 25.24-2.93 26.61-2.93L26.61-2.93Q28.76-2.93 32.91-5.81ZM41.25-35.16L41.25-35.16 43.79-34.57Q43.94-32.57 44.01-28.17 44.09-23.78 44.18-22.12L44.18-22.12Q46.82-24.9 50.53-24.9L50.53-24.9Q53.85-24.9 56.27-22.56 58.69-20.21 58.69-16.31L58.69-16.31 58.69-0.24Q58.05 0.05 57.08 0.05L57.08 0.05Q56 0.05 55.12-0.15L55.12-0.15Q55.12-0.54 55.15-1.34 55.17-2.15 55.17-2.54L55.17-2.54Q55.17-4.44 55.02-9.11 54.88-13.77 54.88-16.89L54.88-16.89Q54.15-21.39 50.34-21.39L50.34-21.39Q48.68-21.39 47.07-20.48 45.45-19.58 44.72-18.36L44.72-18.36Q44.87-15.28 44.92-9.08 44.97-2.88 45.06-0.15L45.06-0.15Q43.89 0.05 43.06 0.05L43.06 0.05Q41.84 0.05 41.01-0.24L41.01-0.24Q41.11-2.64 41.11-7.81L41.11-7.81Q41.11-10.11 41.06-16.24 41.01-22.36 41.04-26.78 41.06-31.2 41.25-35.16ZM63.76-25.1L63.76-25.1 66.01-24.61Q66.4-20.61 66.69-12.04 66.98-3.47 67.08-1.42L67.08-1.42Q66.64 0.1 65.37 0.1L65.37 0.1Q64.49 0.1 63.69-0.61 62.88-1.32 62.69-2.34L62.69-2.34Q62.79-4.35 63.08-12.77 63.37-21.19 63.76-25.1ZM64.45-33.84L64.45-33.84Q65.76-33.84 66.64-32.69 67.52-31.54 67.52-30.08L67.52-30.08Q67.52-29 67.01-28.34 66.5-27.69 65.62-27.69L65.62-27.69Q64.25-27.69 63.47-28.81 62.69-29.93 62.69-31.45L62.69-31.45Q62.69-32.52 63.15-33.18 63.62-33.84 64.45-33.84ZM71.52-2.34L72.6-33.5 74.84-33.01 75.92-1.42Q75.48 0.1 74.21 0.1L74.21 0.1Q73.33 0.1 72.52-0.61 71.72-1.32 71.52-2.34L71.52-2.34Z" opacity="1" transform="matrix(1,0,0,1,0,0)" fill="#ffffff" class="wordmark-text-0" data-fill-palette-color="primary" id="text-0"></path></svg></g></svg></g><g transform="matrix(1,0,0,1,163.31020799999996,235.05073047932245)"><svg viewBox="0 0 232.20979200000002 53.315027027027035" height="53.315027027027035" width="232.20979200000002"><g transform="matrix(1,0,0,1,0,0)"><svg width="232.20979200000002" viewBox="3.7 -43.55 190.54000000000002 43.75" height="53.315027027027035" data-palette-color="#ffffff"><path d="M12.35-0.1Q10.75-0.1 9.22-2.33 7.7-4.55 6.45-8.45L6.45-8.45Q5.25-12.1 4.48-16.5 3.7-20.9 3.7-23.6L3.7-23.6Q3.7-24.75 4.05-25.3 4.4-25.85 5.6-25.85L5.6-25.85Q7.35-25.85 7.45-24.3L7.45-24.3Q7.75-20.15 8.13-17.63 8.5-15.1 9.6-10.95L9.6-10.95Q10.5-7.6 11.2-5.98 11.9-4.35 12.7-4.35L12.7-4.35Q13.3-4.35 14.53-8.5 15.75-12.65 17.4-19.25L17.4-19.25Q17.7-20.3 18.15-20.8 18.6-21.3 19.45-21.3L19.45-21.3Q20.3-21.3 20.7-20.83 21.1-20.35 21.5-19.25L21.5-19.25Q22.05-17.7 23.35-13.4L23.35-13.4Q24.7-8.9 25.58-6.73 26.45-4.55 27.3-4.55L27.3-4.55Q28-4.55 28.58-6.23 29.15-7.9 29.9-11.3L29.9-11.3Q30.9-15.8 31.2-18 31.5-20.2 31.7-24.15L31.7-24.15Q31.75-24.9 32.1-25.35 32.45-25.8 33.55-25.8L33.55-25.8Q34.75-25.8 35.1-25.2 35.45-24.6 35.45-23.3L35.45-23.3Q35.45-20.8 34.8-16.57 34.15-12.35 33.2-8.8L33.2-8.8Q32.1-4.7 30.7-2.4 29.3-0.1 27.7-0.1L27.7-0.1Q26.15-0.1 24.58-2.2 23-4.3 21.68-7.88 20.35-11.45 19.5-15.85L19.5-15.85Q18.55-9.1 16.63-4.6 14.7-0.1 12.35-0.1L12.35-0.1ZM54.8 0.2Q50.7 0.2 47.72-1.58 44.75-3.35 43.22-6.28 41.7-9.2 41.7-12.65L41.7-12.65Q41.7-16.2 43.3-19.18 44.9-22.15 47.85-23.9 50.8-25.65 54.65-25.65L54.65-25.65Q58.05-25.65 60.75-24.28 63.45-22.9 64.95-20.45 66.45-18 66.45-14.85L66.45-14.85Q66.45-13.35 66.1-12.73 65.75-12.1 64.35-12.05L64.35-12.05 45.3-11.65Q45.3-9.75 46.45-7.75 47.6-5.75 49.72-4.4 51.85-3.05 54.65-3.05L54.65-3.05Q56.75-3.05 58.25-3.68 59.75-4.3 60.6-5.1 61.45-5.9 62.65-7.35L62.65-7.35Q63-7.8 63.75-7.8L63.75-7.8Q64.4-7.8 64.97-7.3 65.55-6.8 65.55-6.15L65.55-6.15Q65.55-5.65 65.15-5.1L65.15-5.1Q63.55-2.9 61.27-1.35 59 0.2 54.8 0.2L54.8 0.2ZM45.3-14.65L62.7-15.1Q63.2-15.1 63.2-15.8L63.2-15.8Q63.2-18.8 60.8-20.68 58.4-22.55 54.75-22.55L54.75-22.55Q52-22.55 49.85-21.15 47.7-19.75 46.5-17.85 45.3-15.95 45.3-14.65L45.3-14.65ZM85.95-25.3Q89.59-25.3 92.45-23.73 95.3-22.15 96.9-19.25 98.5-16.35 98.5-12.4L98.5-12.4Q98.5-8.1 96.65-5.28 94.8-2.45 91.95-1.15 89.09 0.15 85.95 0.15L85.95 0.15Q83.75 0.15 81.8-0.53 79.84-1.2 78.5-2.18 77.15-3.15 76.59-4.05L76.59-4.05Q76.3-2.95 75.47-2 74.65-1.05 73.9-0.7L73.9-0.7Q73.5-0.5 73.05-0.5L73.05-0.5Q72.3-0.5 71.8-1.05 71.3-1.6 71.3-2.2L71.3-2.2Q71.3-2.8 71.8-3.25L71.8-3.25Q71.95-3.4 72.3-3.68 72.65-3.95 72.92-4.28 73.2-4.6 73.34-5.05L73.34-5.05Q73.7-6.1 73.7-8.05L73.7-8.05 73.59-11.9 73.45-19.25 73.34-26.05Q73.25-35.9 72.95-41.95L72.95-41.95Q72.9-42.7 73.45-43.13 74-43.55 74.84-43.55L74.84-43.55Q75.65-43.55 76.17-43.15 76.7-42.75 76.75-42.05L76.75-42.05Q77-37.8 77.09-34 77.2-30.2 77.25-26.1L77.25-26.1Q77.25-23.4 77.3-21.85L77.3-21.85Q78.5-23.3 80.7-24.3 82.9-25.3 85.95-25.3L85.95-25.3ZM85.9-3Q88.09-3 90.07-3.95 92.05-4.9 93.34-7.05 94.65-9.2 94.65-12.5L94.65-12.5Q94.65-17.1 92.17-19.63 89.7-22.15 85.7-22.15L85.7-22.15Q82.95-22.15 80.72-20.75 78.5-19.35 77.45-17.55L77.45-17.55 77.45-13.75Q77.45-10.85 77.59-8.95L77.59-8.95Q77.7-7.4 78.87-6.03 80.05-4.65 81.92-3.83 83.8-3 85.9-3L85.9-3ZM111.64-34.9Q121.79-34.25 127.57-30.13 133.34-26 133.34-18.05L133.34-18.05Q133.34-12.7 130.67-8.7 127.99-4.7 122.97-2.53 117.94-0.35 111.14-0.35L111.14-0.35 107.59-0.35Q106.49-0.35 105.99-0.75 105.49-1.15 105.49-2.1L105.49-2.1Q105.49-3.8 107.09-3.8L107.09-3.8 108.79-3.8 108.04-31.5 107.69-31.5Q106.59-31.5 106.02-31.85 105.44-32.2 105.44-33.15L105.44-33.15Q105.44-34.2 106.02-34.6 106.59-35 107.69-35L107.69-35 108.24-35Q108.69-35.9 109.94-35.9L109.94-35.9Q111.29-35.9 111.64-34.9L111.64-34.9ZM112.59-3.8Q117.59-4 121.42-5.73 125.24-7.45 127.39-10.6 129.54-13.75 129.54-18.05L129.54-18.05Q129.54-30.15 111.89-31.35L111.89-31.35 112.59-3.8ZM160.29-4.5Q161.34-4.6 161.87-4.15 162.39-3.7 162.39-2.75L162.39-2.75Q162.39-1.9 161.99-1.53 161.59-1.15 160.89-1L160.89-1Q158.94-0.6 153.34-0.6L153.34-0.6 151.74-0.6Q148.39-0.6 145.76-0.7 143.14-0.8 139.84-1.2L139.84-1.2Q138.49-1.35 138.49-2.85L138.49-2.85Q138.49-3.6 138.84-4.1 139.19-4.6 139.74-4.6L139.74-4.6Q140.24-4.6 140.59-4.55L140.59-4.55Q141.39-9.55 141.44-16.75L141.44-16.75 140.84-16.75Q139.99-16.75 139.54-17.2 139.09-17.65 139.09-18.5L139.09-18.5Q139.09-20.25 140.64-20.25L140.64-20.25 141.44-20.25 141.44-25.8Q141.44-29.4 141.39-31.2L141.39-31.2Q139.99-31.45 139.99-32.8L139.99-32.8Q139.99-33.85 140.51-34.18 141.04-34.5 141.99-34.6L141.99-34.6Q144.79-34.9 150.59-34.9L150.59-34.9Q157.84-34.9 160.99-34.45L160.99-34.45Q161.84-34.3 162.26-33.98 162.69-33.65 162.69-32.8L162.69-32.8Q162.69-31.95 162.24-31.45 161.79-30.95 161.09-31.05L161.09-31.05Q156.09-31.45 151.89-31.45L151.89-31.45Q148.64-31.45 145.14-31.25L145.14-31.25Q145.34-24.25 145.34-20.2L145.34-20.2 148.69-20.15Q152.69-20.05 153.79-20.05L153.79-20.05Q156.49-19.95 157.19-19.95L157.19-19.95Q158.59-19.95 158.59-18.3L158.59-18.3Q158.59-17.45 158.24-16.95 157.89-16.45 157.19-16.45L157.19-16.45 154.54-16.5Q152.29-16.65 148.59-16.65L148.59-16.65Q146.34-16.65 145.29-16.7L145.29-16.7Q145.24-11 144.44-4.3L144.44-4.3Q147.54-4.05 152.19-4.05L152.19-4.05Q154.89-4.05 156.47-4.15 158.04-4.25 160.29-4.5L160.29-4.5ZM180.99 0Q179.69 0 178.64-0.63 177.59-1.25 176.99-2.4L176.99-2.4Q175.59-5.05 171.44-18.65L171.44-18.65Q168.94-27.15 169.14-26.55L169.14-26.55Q168.29-29.3 167.19-33.2L167.19-33.2Q167.09-33.6 167.09-33.75L167.09-33.75Q167.09-34.45 167.71-34.93 168.34-35.4 169.14-35.4L169.14-35.4Q170.44-35.4 170.74-34.45L170.74-34.45Q172.34-29.2 173.29-25.65L173.29-25.65 175.14-19.3Q177.09-12.85 178.09-9.88 179.09-6.9 179.71-5.78 180.34-4.65 180.94-4.65L180.94-4.65Q181.59-4.7 182.16-5.78 182.74-6.85 183.64-9.73 184.54-12.6 186.39-19.3L186.39-19.3 190.44-34.35Q190.79-35.3 192.14-35.3L192.14-35.3Q193.04-35.3 193.64-34.83 194.24-34.35 194.24-33.6L194.24-33.6Q194.24-33.3 194.19-33.15L194.19-33.15Q192.99-28.6 190.99-21.6L190.99-21.6 190.19-18.8Q186.34-5.25 184.99-2.4L184.99-2.4Q184.49-1.3 183.39-0.65 182.29 0 180.99 0L180.99 0Z" opacity="1" transform="matrix(1,0,0,1,0,0)" fill="#ffffff" class="slogan-text-1" data-fill-palette-color="secondary" id="text-1"></path></svg></g></svg></g></svg></g></svg></g><g transform="matrix(1,0,0,1,440.41192917639086,33.60678732460333)"><svg viewBox="0 0 244.43135999999998 221.15218285714283" height="221.15218285714283" width="244.43135999999998"><g><svg xmlns="http://www.w3.org/2000/svg" xmlns:xlink="http://www.w3.org/1999/xlink" version="1.1" x="0" y="0" viewBox="0.9999999999999998 13 126 114" style="enable-background:new 0 0 128 128;" xml:space="preserve" height="221.15218285714283" width="244.43135999999998" class="icon-icon-0" data-fill-palette-color="accent" id="icon-0"><g fill="#ffffff" data-fill-palette-color="accent"><path d="M90 39c0-14.3-11.7-26-26-26S38 24.7 38 39s11.7 26 26 26S90 53.3 90 39zM44 39l12.5-7.3c2-1.2 4.5 0.3 4.5 2.6V39c0 1.7 1.3 3 3 3h19.7C82.3 51.6 74 59 64 59 53 59 44 50 44 39z" fill="#ffffff" data-fill-palette-color="accent"></path><path d="M114.6 91.7c-0.8-1.4-2.7-1.9-4.1-1.1-1.4 0.8-1.9 2.7-1.1 4.1 0 0 10.8 18.6 10.8 18.6 0.5 0.8 0.8 1.7 0.8 2.7 0 2.8-2.2 5-5 5h-14.7l3.2-38.3c0.2-2.5-0.6-5-2.3-6.8S98 73 95.5 73H31.7c-2.5 0-5 1.1-6.7 3-1.7 1.9-2.5 4.4-2.3 7l4 38.1H12c-2.8 0-5-2.2-5-5 0-0.9 0.3-1.8 0.7-2.6 0.1-0.1 10.9-18.7 10.9-18.7 0.8-1.4 0.3-3.3-1.1-4.1-1.4-0.8-3.3-0.3-4.1 1.1L2.8 110c0 0 0 0 0 0-1.2 1.8-1.8 3.9-1.8 6 0 6.1 4.9 11 11 11h18v0c0.1 0 0.2 0 0.3 0l27.6 0c0 0 0.1 0 0.1 0h58c6.1 0 11-4.9 11-11 0-2.1-0.6-4.2-1.8-6C125.2 110 114.6 91.7 114.6 91.7zM63 105c-3.3 0-6-2.7-6-6s2.7-6 6-6 6 2.7 6 6S66.3 105 63 105z" fill="#ffffff" data-fill-palette-color="accent"></path></g></svg></g></svg></g></svg></g><defs></defs></svg><rect width="395.52" height="166.54090974020636" fill="none" stroke="none" visibility="hidden"></rect></g></svg></g></svg>